<svg xmlns="http://www.w3.org/2000/svg" version="1.1" xmlns:xlink="http://www.w3.org/1999/xlink" xmlns:svgjs="http://svgjs.dev/svgjs" viewBox="0 0 14.934948535742828 14.578520592892904"><g transform="matrix(1,0,0,1,1.229620263965164,12.28390032892774)"><rect width="14.934948535742828" height="14.934948535742828" x="-1.229620263965164" y="-12.462114300352702" fill="#ffffff"></rect><g><path d=" M 0.183 0.00749999999999984 L 0.2595 0.00749999999999984 L 0.2595 0.9884999999999999 L 0.864 0.9884999999999999 L 0.864 1.0574999999999999 L 0.183 1.0574999999999999 L 0.183 0.00749999999999984 M 1.2060673828125 0.9952499999999999 Q 1.0815673828125 0.9254999999999999 1.0103173828125 0.8039999999999998 Q 0.9390673828125 0.6824999999999999 0.9390673828125 0.5324999999999999 Q 0.9390673828125 0.38249999999999984 1.0103173828125 0.2609999999999999 Q 1.0815673828125 0.13949999999999985 1.2060673828125 0.06974999999999987 Q 1.3305673828125 -2.220446049250313e-16 1.4850673828125 -2.220446049250313e-16 Q 1.6395673828125 -2.220446049250313e-16 1.7640673828125 0.06899999999999984 Q 1.8885673828125 0.1379999999999999 1.9598173828125 0.25949999999999984 Q 2.0310673828125 0.3809999999999999 2.0310673828125 0.5324999999999999 Q 2.0310673828125 0.6839999999999999 1.9598173828125 0.8054999999999999 Q 1.8885673828125 0.9269999999999998 1.7640673828125 0.9959999999999999 Q 1.6395673828125 1.065 1.4850673828125 1.065 Q 1.3305673828125 1.065 1.2060673828125 0.9952499999999999 M 1.7235673828125 0.9344999999999999 Q 1.8300673828125 0.8744999999999998 1.8915673828125 0.7687499999999998 Q 1.9530673828125 0.6629999999999998 1.9530673828125 0.5324999999999999 Q 1.9530673828125 0.4019999999999999 1.8915673828125 0.2962499999999999 Q 1.8300673828125 0.1904999999999999 1.7235673828125 0.13049999999999984 Q 1.6170673828125 0.0704999999999999 1.4850673828125 0.0704999999999999 Q 1.3530673828125 0.0704999999999999 1.2458173828125 0.13049999999999984 Q 1.1385673828125 0.1904999999999999 1.0770673828125 0.2962499999999999 Q 1.0155673828125 0.4019999999999999 1.0155673828125 0.5324999999999999 Q 1.0155673828125 0.6629999999999998 1.0770673828125 0.7687499999999998 Q 1.1385673828125 0.8744999999999998 1.2458173828125 0.9344999999999999 Q 1.3530673828125 0.9944999999999999 1.4850673828125 0.9944999999999999 Q 1.6170673828125 0.9944999999999999 1.7235673828125 0.9344999999999999 M 2.46308642578125 0.9952499999999999 Q 2.33858642578125 0.9254999999999999 2.26733642578125 0.8039999999999998 Q 2.19608642578125 0.6824999999999999 2.19608642578125 0.5324999999999999 Q 2.19608642578125 0.38249999999999984 2.26733642578125 0.2609999999999999 Q 2.33858642578125 0.13949999999999985 2.46308642578125 0.06974999999999987 Q 2.58758642578125 -2.220446049250313e-16 2.74208642578125 -2.220446049250313e-16 Q 2.89658642578125 -2.220446049250313e-16 3.0210864257812498 0.06899999999999984 Q 3.14558642578125 0.1379999999999999 3.21683642578125 0.25949999999999984 Q 3.28808642578125 0.3809999999999999 3.28808642578125 0.5324999999999999 Q 3.28808642578125 0.6839999999999999 3.21683642578125 0.8054999999999999 Q 3.14558642578125 0.9269999999999998 3.0210864257812498 0.9959999999999999 Q 2.89658642578125 1.065 2.74208642578125 1.065 Q 2.58758642578125 1.065 2.46308642578125 0.9952499999999999 M 2.98058642578125 0.9344999999999999 Q 3.08708642578125 0.8744999999999998 3.14858642578125 0.7687499999999998 Q 3.21008642578125 0.6629999999999998 3.21008642578125 0.5324999999999999 Q 3.21008642578125 0.4019999999999999 3.14858642578125 0.2962499999999999 Q 3.08708642578125 0.1904999999999999 2.98058642578125 0.13049999999999984 Q 2.87408642578125 0.0704999999999999 2.74208642578125 0.0704999999999999 Q 2.61008642578125 0.0704999999999999 2.50283642578125 0.13049999999999984 Q 2.39558642578125 0.1904999999999999 2.33408642578125 0.2962499999999999 Q 2.27258642578125 0.4019999999999999 2.27258642578125 0.5324999999999999 Q 2.27258642578125 0.6629999999999998 2.33408642578125 0.7687499999999998 Q 2.39558642578125 0.8744999999999998 2.50283642578125 0.9344999999999999 Q 2.61008642578125 0.9944999999999999 2.74208642578125 0.9944999999999999 Q 2.87408642578125 0.9944999999999999 2.98058642578125 0.9344999999999999 M 3.60985546875 1.0252499999999998 Q 3.50560546875 0.9854999999999998 3.44710546875 0.9224999999999999 L 3.48160546875 0.8654999999999999 Q 3.53710546875 0.9239999999999999 3.63085546875 0.9607499999999999 Q 3.72460546875 0.9974999999999998 3.82810546875 0.9974999999999998 Q 3.97810546875 0.9974999999999998 4.05460546875 0.9404999999999999 Q 4.13110546875 0.8834999999999998 4.13110546875 0.7919999999999998 Q 4.13110546875 0.7214999999999998 4.09060546875 0.6794999999999999 Q 4.05010546875 0.6375 3.99010546875 0.6149999999999999 Q 3.93010546875 0.5924999999999998 3.82810546875 0.5684999999999999 Q 3.71260546875 0.5399999999999999 3.64285546875 0.5129999999999999 Q 3.57310546875 0.4859999999999999 3.52435546875 0.42974999999999985 Q 3.47560546875 0.37349999999999983 3.47560546875 0.2789999999999999 Q 3.47560546875 0.2024999999999999 3.51610546875 0.13874999999999982 Q 3.55660546875 0.07499999999999984 3.63985546875 0.03749999999999987 Q 3.72310546875 -2.220446049250313e-16 3.84760546875 -2.220446049250313e-16 Q 3.93460546875 -2.220446049250313e-16 4.01860546875 0.025499999999999856 Q 4.10260546875 0.050999999999999934 4.16410546875 0.09449999999999992 L 4.13560546875 0.15599999999999992 Q 4.07260546875 0.11249999999999982 3.9968554687499998 0.08999999999999986 Q 3.92110546875 0.0674999999999999 3.84760546875 0.0674999999999999 Q 3.70210546875 0.0674999999999999 3.62710546875 0.1259999999999999 Q 3.5521054687499998 0.1844999999999999 3.5521054687499998 0.27749999999999986 Q 3.5521054687499998 0.34799999999999986 3.59260546875 0.3899999999999999 Q 3.63310546875 0.43199999999999983 3.69310546875 0.4544999999999999 Q 3.75310546875 0.47699999999999987 3.8566054687499998 0.5024999999999998 Q 3.97210546875 0.5309999999999999 4.04110546875 0.5579999999999998 Q 4.11010546875 0.5849999999999999 4.15885546875 0.6397499999999998 Q 4.20760546875 0.6944999999999999 4.20760546875 0.7874999999999999 Q 4.20760546875 0.8639999999999999 4.16635546875 0.9269999999999998 Q 4.12510546875 0.9899999999999999 4.0396054687500005 1.0274999999999999 Q 3.95410546875 1.065 3.82960546875 1.065 Q 3.71410546875 1.065 3.60985546875 1.0252499999999998 M 4.63286865234375 0.9959999999999999 Q 4.50911865234375 0.9269999999999998 4.43786865234375 0.8054999999999999 Q 4.36661865234375 0.6839999999999999 4.36661865234375 0.5324999999999999 Q 4.36661865234375 0.3809999999999999 4.43786865234375 0.25949999999999984 Q 4.50911865234375 0.1379999999999999 4.63286865234375 0.06899999999999984 Q 4.75661865234375 -2.220446049250313e-16 4.91111865234375 -2.220446049250313e-16 Q 5.02511865234375 -2.220446049250313e-16 5.12111865234375 0.03674999999999984 Q 5.21711865234375 0.0734999999999999 5.28461865234375 0.14549999999999985 L 5.23661865234375 0.19499999999999984 Q 5.11061865234375 0.0704999999999999 4.91411865234375 0.0704999999999999 Q 4.78211865234375 0.0704999999999999 4.67411865234375 0.13049999999999984 Q 4.56611865234375 0.1904999999999999 4.50461865234375 0.2962499999999999 Q 4.44311865234375 0.4019999999999999 4.44311865234375 0.5324999999999999 Q 4.44311865234375 0.6629999999999998 4.50461865234375 0.7687499999999998 Q 4.56611865234375 0.8744999999999998 4.67411865234375 0.9344999999999999 Q 4.78211865234375 0.9944999999999999 4.91411865234375 0.9944999999999999 Q 5.10911865234375 0.9944999999999999 5.23661865234375 0.8684999999999998 L 5.28461865234375 0.9179999999999999 Q 5.21711865234375 0.9899999999999999 5.12036865234375 1.0274999999999999 Q 5.02361865234375 1.065 4.91111865234375 1.065 Q 4.75661865234375 1.065 4.63286865234375 0.9959999999999999 M 6.16215087890625 0.7619999999999999 L 5.55315087890625 0.7619999999999999 L 5.41965087890625 1.0574999999999999 L 5.33715087890625 1.0574999999999999 L 5.82015087890625 0.00749999999999984 L 5.89665087890625 0.00749999999999984 L 6.37965087890625 1.0574999999999999 L 6.29715087890625 1.0574999999999999 L 6.16215087890625 0.7619999999999999 M 6.13365087890625 0.6974999999999999 L 5.8576508789062505 0.09149999999999991 L 5.58315087890625 0.6974999999999999 L 6.13365087890625 0.6974999999999999 M 7.257176513671875 0.10124999999999984 Q 7.369676513671875 0.19499999999999984 7.369676513671875 0.3614999999999998 Q 7.369676513671875 0.5264999999999999 7.257176513671875 0.6202499999999999 Q 7.144676513671875 0.7139999999999999 6.946676513671875 0.7139999999999999 L 6.646676513671875 0.7139999999999999 L 6.646676513671875 1.0574999999999999 L 6.570176513671875 1.0574999999999999 L 6.570176513671875 0.00749999999999984 L 6.946676513671875 0.00749999999999984 Q 7.144676513671875 0.00749999999999984 7.257176513671875 0.10124999999999984 M 7.203176513671875 0.5714999999999999 Q 7.291676513671875 0.4979999999999999 7.291676513671875 0.3614999999999998 Q 7.291676513671875 0.22499999999999987 7.203176513671875 0.15074999999999983 Q 7.114676513671875 0.0764999999999999 6.946676513671875 0.0764999999999999 L 6.646676513671875 0.0764999999999999 L 6.646676513671875 0.6449999999999998 L 6.946676513671875 0.6449999999999998 Q 7.114676513671875 0.6449999999999998 7.203176513671875 0.5714999999999999 M 8.3522021484375 0.9884999999999999 L 8.3522021484375 1.0574999999999999 L 7.6277021484375 1.0574999999999999 L 7.6277021484375 0.00749999999999984 L 8.3297021484375 0.00749999999999984 L 8.3297021484375 0.0764999999999999 L 7.7042021484375 0.0764999999999999 L 7.7042021484375 0.4904999999999998 L 8.2637021484375 0.4904999999999998 L 8.2637021484375 0.5579999999999998 L 7.7042021484375 0.5579999999999998 L 7.7042021484375 0.9884999999999999 L 8.3522021484375 0.9884999999999999 M 8.568976318359375 1.0447499999999998 Q 8.550226318359375 1.0259999999999998 8.550226318359375 0.9989999999999999 Q 8.550226318359375 0.9719999999999999 8.568976318359375 0.9539999999999998 Q 8.587726318359374 0.9359999999999999 8.613226318359375 0.9359999999999999 Q 8.638726318359375 0.9359999999999999 8.657476318359375 0.9539999999999998 Q 8.676226318359374 0.9719999999999999 8.676226318359374 0.9989999999999999 Q 8.676226318359374 1.0259999999999998 8.657476318359375 1.0447499999999998 Q 8.638726318359375 1.0635 8.613226318359375 1.0635 Q 8.587726318359374 1.0635 8.568976318359375 1.0447499999999998 M 9.08196533203125 0.9959999999999999 Q 8.95821533203125 0.9269999999999998 8.88696533203125 0.8054999999999999 Q 8.81571533203125 0.6839999999999999 8.81571533203125 0.5324999999999999 Q 8.81571533203125 0.3809999999999999 8.88696533203125 0.25949999999999984 Q 8.95821533203125 0.1379999999999999 9.08196533203125 0.06899999999999984 Q 9.20571533203125 -2.220446049250313e-16 9.36021533203125 -2.220446049250313e-16 Q 9.47421533203125 -2.220446049250313e-16 9.57021533203125 0.03674999999999984 Q 9.66621533203125 0.0734999999999999 9.73371533203125 0.14549999999999985 L 9.68571533203125 0.19499999999999984 Q 9.55971533203125 0.0704999999999999 9.36321533203125 0.0704999999999999 Q 9.23121533203125 0.0704999999999999 9.12321533203125 0.13049999999999984 Q 9.01521533203125 0.1904999999999999 8.95371533203125 0.2962499999999999 Q 8.89221533203125 0.4019999999999999 8.89221533203125 0.5324999999999999 Q 8.89221533203125 0.6629999999999998 8.95371533203125 0.7687499999999998 Q 9.01521533203125 0.8744999999999998 9.12321533203125 0.9344999999999999 Q 9.23121533203125 0.9944999999999999 9.36321533203125 0.9944999999999999 Q 9.55821533203125 0.9944999999999999 9.68571533203125 0.8684999999999998 L 9.73371533203125 0.9179999999999999 Q 9.66621533203125 0.9899999999999999 9.56946533203125 1.0274999999999999 Q 9.47271533203125 1.065 9.36021533203125 1.065 Q 9.20571533203125 1.065 9.08196533203125 0.9959999999999999 M 10.134198486328126 0.9952499999999999 Q 10.009698486328125 0.9254999999999999 9.938448486328125 0.8039999999999998 Q 9.867198486328125 0.6824999999999999 9.867198486328125 0.5324999999999999 Q 9.867198486328125 0.38249999999999984 9.938448486328125 0.2609999999999999 Q 10.009698486328125 0.13949999999999985 10.134198486328126 0.06974999999999987 Q 10.258698486328125 -2.220446049250313e-16 10.413198486328126 -2.220446049250313e-16 Q 10.567698486328124 -2.220446049250313e-16 10.692198486328126 0.06899999999999984 Q 10.816698486328125 0.1379999999999999 10.887948486328124 0.25949999999999984 Q 10.959198486328125 0.3809999999999999 10.959198486328125 0.5324999999999999 Q 10.959198486328125 0.6839999999999999 10.887948486328124 0.8054999999999999 Q 10.816698486328125 0.9269999999999998 10.692198486328126 0.9959999999999999 Q 10.567698486328124 1.065 10.413198486328126 1.065 Q 10.258698486328125 1.065 10.134198486328126 0.9952499999999999 M 10.651698486328126 0.9344999999999999 Q 10.758198486328125 0.8744999999999998 10.819698486328125 0.7687499999999998 Q 10.881198486328126 0.6629999999999998 10.881198486328126 0.5324999999999999 Q 10.881198486328126 0.4019999999999999 10.819698486328125 0.2962499999999999 Q 10.758198486328125 0.1904999999999999 10.651698486328126 0.13049999999999984 Q 10.545198486328125 0.0704999999999999 10.413198486328126 0.0704999999999999 Q 10.281198486328124 0.0704999999999999 10.173948486328126 0.13049999999999984 Q 10.066698486328125 0.1904999999999999 10.005198486328124 0.2962499999999999 Q 9.943698486328126 0.4019999999999999 9.943698486328126 0.5324999999999999 Q 9.943698486328126 0.6629999999999998 10.005198486328124 0.7687499999999998 Q 10.066698486328125 0.8744999999999998 10.173948486328126 0.9344999999999999 Q 10.281198486328124 0.9944999999999999 10.413198486328126 0.9944999999999999 Q 10.545198486328125 0.9944999999999999 10.651698486328126 0.9344999999999999 M 12.217717529296875 1.0574999999999999 L 12.216217529296875 0.15899999999999992 L 11.776717529296874 0.9179999999999999 L 11.739217529296875 0.9179999999999999 L 11.299717529296874 0.1619999999999998 L 11.299717529296874 1.0574999999999999 L 11.224717529296875 1.0574999999999999 L 11.224717529296875 0.00749999999999984 L 11.289217529296875 0.00749999999999984 L 11.758717529296876 0.8189999999999998 L 12.228217529296876 0.00749999999999984 L 12.291217529296874 0.00749999999999984 L 12.292717529296874 1.0574999999999999 L 12.217717529296875 1.0574999999999999" fill="#212245" fill-rule="nonzero"></path></g><g></g><g clip-path="url(#SvgjsClipPath1002)"><g clip-path="url(#aecf2008e-db03-42b5-86a6-84a29fad71047a66d914-5945-4336-b876-83d62c3e3f67)"><path d=" M 11.259387299346658 -5.776461287788752 C 11.280853519997978 -5.913982851105764 11.292332782378363 -6.058506764474812 11.292332782378363 -6.210492198391108 L 11.292332782378363 -11.054281752418364 C 8.874570539821672 -11.054281752418364 6.881655797963033 -9.236081383989184 6.605579537714774 -6.892360383785978 C 6.58329494416276 -6.748762625476319 6.572241350252237 -6.603645824866302 6.572519262059264 -6.458329473183618 L 6.572519262059264 -1.614539919156364 C 8.990396297239759 -1.614539919156364 10.983311039098398 -3.4327402875855455 11.259387299346658 -5.776461287788752" fill="#64c6c4" transform="matrix(1,0,0,1,0,0)" fill-rule="nonzero"></path></g><g clip-path="url(#aecf2008e-db03-42b5-86a6-84a29fad71047a66d914-5945-4336-b876-83d62c3e3f67)"><path d=" M 6.575389077654361 -5.327736921339502 L 6.585376035925296 -5.327736921339502 L 6.585376035925296 -11.054281752418364 L 1.183235159716114 -11.054281752418364 L 1.183235159716114 -0.25 C 4.057872045012125 -0.25 6.4075622616531325 -2.495343721603305 6.575389077654361 -5.327736921339502" fill="#212245" transform="matrix(1,0,0,1,0,0)" fill-rule="nonzero"></path></g></g></g><defs><clipPath id="SvgjsClipPath1002"><path d=" M 1.183235159716114 -11.054280064962576 h 10.109237688380272 v 10.804280064962576 h -10.109237688380272 Z"></path></clipPath><clipPath id="aecf2008e-db03-42b5-86a6-84a29fad71047a66d914-5945-4336-b876-83d62c3e3f67"><path d=" M 1.183235159716114 -0.25 L 11.292447575002164 -0.25 L 11.292447575002164 -11.054281752418365 L 1.183235159716114 -11.054281752418365 Z"></path></clipPath></defs></svg>